<svg xmlns="http://www.w3.org/2000/svg" xmlns:xlink="http://www.w3.org/1999/xlink" width="1366" zoomAndPan="magnify" viewBox="0 0 1024.5 576" height="768" preserveAspectRatio="xMidYMid meet" version="1.0"><defs><clipPath id="664f25aa01"><path d="M 0 0.140625 L 1024 0.140625 L 1024 575.859375 L 0 575.859375 Z M 0 0.140625 " clip-rule="nonzero"/></clipPath><clipPath id="58bc913226"><path d="M 0 0.140625 L 1024 0.140625 L 1024 177.957031 L 0 177.957031 Z M 0 0.140625 " clip-rule="nonzero"/></clipPath></defs><g clip-path="url(#664f25aa01)"><path fill="#ffffff" d="M 0 0.140625 L 1024 0.140625 L 1024 575.859375 L 0 575.859375 Z M 0 0.140625 " fill-opacity="1" fill-rule="nonzero"/><path fill="#fee2e1" d="M 0 0.140625 L 1024 0.140625 L 1024 575.859375 L 0 575.859375 Z M 0 0.140625 " fill-opacity="1" fill-rule="nonzero"/></g><g clip-path="url(#58bc913226)"><path fill="#ffffff" d="M 136.9375 -147.710938 C 285.378906 -57.722656 472.492188 -116.582031 634.960938 -95.566406 C 810.144531 -72.910156 928.410156 43.035156 1024 178.332031 L 1024 -327.285156 L 0 -327.285156 C 23.359375 -253.617188 71.421875 -187.445312 136.9375 -147.710938 Z M 136.9375 -147.710938 " fill-opacity="1" fill-rule="nonzero"/></g></svg>