<svg xmlns="http://www.w3.org/2000/svg" xmlns:xlink="http://www.w3.org/1999/xlink" width="1366" zoomAndPan="magnify" viewBox="0 0 1024.5 416.250001" height="555" preserveAspectRatio="xMidYMid meet" version="1.0"><defs><clipPath id="d7de88bae6"><path d="M 0.671875 0 L 1023.328125 0 L 1023.328125 415.5 L 0.671875 415.5 Z M 0.671875 0 " clip-rule="nonzero"/></clipPath><clipPath id="b1f650fd1d"><path d="M 1 0 L 1023 0 L 1023 219.226562 L 1 219.226562 Z M 1 0 " clip-rule="nonzero"/></clipPath></defs><g clip-path="url(#d7de88bae6)"><path fill="#ffffff" d="M 0.671875 0 L 1023.328125 0 L 1023.328125 415.5 L 0.671875 415.5 Z M 0.671875 0 " fill-opacity="1" fill-rule="nonzero"/><path fill="#ffffff" d="M 0.671875 0 L 1023.328125 0 L 1023.328125 415.5 L 0.671875 415.5 Z M 0.671875 0 " fill-opacity="1" fill-rule="nonzero"/></g><g clip-path="url(#b1f650fd1d)"><path fill="#fee2e1" d="M 1.027344 41.664062 L 1.027344 -136.136719 L 1022.972656 -136.136719 L 1022.972656 13.960938 C 1022.972656 96.515625 1022.652344 164.058594 1022.332031 164.058594 C 1021.214844 164.058594 991.59375 157.992188 979.460938 155.277344 C 962.453125 151.523438 920.9375 140.824219 900.417969 134.917969 C 864.570312 124.617188 832.15625 114.398438 741.539062 84.617188 C 671.917969 61.785156 649.402344 54.679688 618.984375 45.976562 C 528.765625 20.1875 458.746094 9.171875 385.136719 9.171875 C 278.550781 9.171875 199.667969 30.726562 132.125 78.152344 C 87.414062 109.609375 42.625 156.632812 9.652344 206.773438 C 5.339844 213.320312 1.585938 218.828125 1.429688 219.070312 C 1.1875 219.226562 1.027344 139.390625 1.027344 41.664062 Z M 1.027344 41.664062 " fill-opacity="1" fill-rule="nonzero"/></g></svg>